/* XPM */
static char * five_xpm[] = {
"41 71 2 1",
" 	c None",
".	c #EA1010",
"                                         ",
" ......... ......... ......... ......... ",
" ......... ......... ......... ......... ",
" ......... ......... ......... ......... ",
" ......... ......... ......... ......... ",
" ......... ......... ......... ......... ",
" ......... ......... ......... ......... ",
" ......... ......... ......... ......... ",
" ......... ......... ......... ......... ",
" ......... ......... ......... ......... ",
"                                         ",
" .........                               ",
" .........                               ",
" .........                               ",
" .........                               ",
" .........                               ",
" .........                               ",
" .........                               ",
" .........                               ",
" .........                               ",
"                                         ",
" ......... ......... .........           ",
" ......... ......... .........           ",
" ......... ......... .........           ",
" ......... ......... .........           ",
" ......... ......... .........           ",
" ......... ......... .........           ",
" ......... ......... .........           ",
" ......... ......... .........           ",
" ......... ......... .........           ",
"                                         ",
"                               ......... ",
"                               ......... ",
"                               ......... ",
"                               ......... ",
"                               ......... ",
"                               ......... ",
"                               ......... ",
"                               ......... ",
"                               ......... ",
"                                         ",
"                               ......... ",
"                               ......... ",
"                               ......... ",
"                               ......... ",
"                               ......... ",
"                               ......... ",
"                               ......... ",
"                               ......... ",
"                               ......... ",
"                                         ",
" .........                     ......... ",
" .........                     ......... ",
" .........                     ......... ",
" .........                     ......... ",
" .........                     ......... ",
" .........                     ......... ",
" .........                     ......... ",
" .........                     ......... ",
" .........                     ......... ",
"                                         ",
"           ......... .........           ",
"           ......... .........           ",
"           ......... .........           ",
"           ......... .........           ",
"           ......... .........           ",
"           ......... .........           ",
"           ......... .........           ",
"           ......... .........           ",
"           ......... .........           ",
"                                         "};
