/* XPM */
static char * zero_xpm[] = {
"40 70 2 1",
" 	c None",
".	c #EA1010",
"                                        ",
"           ......... .........          ",
"           ......... .........          ",
"           ......... .........          ",
"           ......... .........          ",
"           ......... .........          ",
"           ......... .........          ",
"           ......... .........          ",
"           ......... .........          ",
"           ......... .........          ",
"                                        ",
" .........                     .........",
" .........                     .........",
" .........                     .........",
" .........                     .........",
" .........                     .........",
" .........                     .........",
" .........                     .........",
" .........                     .........",
" .........                     .........",
"                                        ",
" .........                     .........",
" .........                     .........",
" .........                     .........",
" .........                     .........",
" .........                     .........",
" .........                     .........",
" .........                     .........",
" .........                     .........",
" .........                     .........",
"                                        ",
" .........                     .........",
" .........                     .........",
" .........                     .........",
" .........                     .........",
" .........                     .........",
" .........                     .........",
" .........                     .........",
" .........                     .........",
" .........                     .........",
"                                        ",
" .........                     .........",
" .........                     .........",
" .........                     .........",
" .........                     .........",
" .........                     .........",
" .........                     .........",
" .........                     .........",
" .........                     .........",
" .........                     .........",
"                                        ",
" .........                     .........",
" .........                     .........",
" .........                     .........",
" .........                     .........",
" .........                     .........",
" .........                     .........",
" .........                     .........",
" .........                     .........",
" .........                     .........",
"                                        ",
"           ......... .........          ",
"           ......... .........          ",
"           ......... .........          ",
"           ......... .........          ",
"           ......... .........          ",
"           ......... .........          ",
"           ......... .........          ",
"           ......... .........          ",
"           ......... .........          "};
